<?xml version="1.0" standalone="no"?>
<svg
  width="600"
  height="600"
  viewBox="0 0 600 600"
  xmlns="http://www.w3.org/2000/svg"
>
  <g transform="translate(300,300)">
    <path d="M80.5,-107.2C117.8,-101.4,170.8,-101.8,198.6,-79.4C226.4,-57,229,-11.9,219,28.9C209.1,69.6,186.5,105.8,158,134.7C129.5,163.5,95,184.9,62.9,177.5C30.8,170.2,1,134,-44.3,130.2C-89.7,126.4,-150.7,154.9,-162,140.9C-173.4,126.9,-135.2,70.4,-120.1,30.6C-105,-9.1,-113,-32.2,-121.5,-72.9C-130,-113.7,-139.1,-172.1,-118.9,-185.7C-98.8,-199.3,-49.4,-168.2,-13.9,-146.6C21.6,-125,43.3,-113,80.5,-107.2Z" fill="#7bdcb5" />
  </g>
</svg>
  