<svg width="200" height="200" viewBox="0 0 200 200" fill="none" xmlns="http://www.w3.org/2000/svg">
<path d="M100 0L115.607 21.5372L138.268 7.61205L144.446 33.4824L170.711 29.2893L166.518 55.5544L192.388 61.7317L178.463 84.3928L200 100L178.463 115.607L192.388 138.268L166.518 144.446L170.711 170.711L144.446 166.518L138.268 192.388L115.607 178.463L100 200L84.3928 178.463L61.7317 192.388L55.5544 166.518L29.2893 170.711L33.4824 144.446L7.61205 138.268L21.5372 115.607L0 100L21.5372 84.3928L7.61205 61.7317L33.4824 55.5544L29.2893 29.2893L55.5544 33.4824L61.7317 7.61205L84.3928 21.5372L100 0Z" fill="#fb7800"/>
</svg>
