<svg width="136" height="142" viewBox="0 0 136 142" version="1.1" xmlns="http://www.w3.org/2000/svg" xmlns:xlink="http://www.w3.org/1999/xlink"><title>Artboard</title><defs><path d="M76.834 127.358h46.913l-1.1 5.763 1.1 4.515H76.834a5.14 5.14 0 0 1 0-10.278z" id="a"/></defs><g stroke="none" stroke-width="1" fill="none" fill-rule="evenodd"><path fill="#C6775C" d="M45.847 70.598h22.924v19.8H45.847z"/><path d="M34.002 83.7h43.574c10.936 0 19.8 8.865 19.8 19.8v37.62H11.242c-5.833 0-10.56-4.728-10.56-10.56 0-1.537.335-3.055.983-4.45l14.38-30.952A19.8 19.8 0 0 1 34.002 83.7z" fill="#FFB100"/><path d="M39.061 83.7h31.68c0 8.748-7.092 15.84-15.84 15.84-8.748 0-15.84-7.092-15.84-15.84zM102.902 28.977a5.28 5.28 0 0 1-.674-5.414l1.542-3.463-3.08-8.465a3.666 3.666 0 1 1 6.89-2.508l1.32 3.63 4.178-9.381a3.666 3.666 0 1 1 6.698 2.982l-3.927 8.82.457.204 6.946-9.218a3.666 3.666 0 0 1 5.855 4.412l-5.936 7.879c.038.02.075.041.112.063l6.701-4.869a3.666 3.666 0 1 1 4.31 5.932l-9.019 6.552a3.714 3.714 0 0 1-.266.177l-2.748 6.172a5.28 5.28 0 0 1-4.783 3.134L101.15 72.29a5.28 5.28 0 0 1-6.971 2.676l-4.985-2.22a5.28 5.28 0 0 1-2.676-6.97l16.384-36.8zM48.84 124.568h7.773a3.96 3.96 0 0 1 3.386 1.907l5.202 8.58a3.96 3.96 0 0 1-3.387 6.013H48.84v-16.5z" fill="#C6775C"/><path d="M64.623 107.297l32.96-74.032a3.3 3.3 0 0 1 4.357-1.672l14.913 6.64a3.3 3.3 0 0 1 1.673 4.356l-32.961 74.032a5.28 5.28 0 0 1-6.971 2.676l-11.296-5.03a5.28 5.28 0 0 1-2.675-6.97z" fill="#FFB100"/><path d="M55.356 11.873c4.325 0 8.333.407 12.025 1.221 12.009 2.648 20.184 13.801 19.096 26.05l-1.064 11.963a2.64 2.64 0 0 1-2.325 2.389L34.384 59.15a2.64 2.64 0 0 1-2.922-2.279l-2.03-15.442c-1.883-14.318 8.198-27.45 22.516-29.333a26.148 26.148 0 0 1 3.408-.223z" fill="#000"/><rect fill="#C6775C" x="74.25" y="47.275" width="14.781" height="14.52" rx="6.6"/><path d="M36.421 20.913l46.318 7.939V60.54c0 12.824-10.336 23.251-23.16 23.364-12.677.112-23.045-10.075-23.157-22.753V20.913z" fill="#C6775C"/><path d="M82.739 41.786A14.352 14.352 0 0 1 72.685 31.77 34.484 34.484 0 0 1 42.97 43.477l-6.55-.697V20.913l46.318 7.939v12.934z" fill="#000"/><rect fill="#FFF" x="51.302" y="44.008" width="11.088" height="17.424" rx="5.544"/><rect fill="#000" x="55.356" y="48.047" width="5.283" height="9.346" rx="2.641"/><rect fill="#FFF" x="66.643" y="43.335" width="11.088" height="17.424" rx="5.544"/><rect fill="#000" x="70.698" y="47.374" width="5.283" height="9.346" rx="2.641"/><path d="M66.478 57.861a2.822 2.822 0 1 1-3.96 0v-9.505a1.98 1.98 0 0 1 3.96 0v9.505z" fill="#A55539"/><rect fill="#C6775C" x="28.462" y="52.19" width="14.781" height="14.52" rx="6.6"/><circle fill="#000" cx="32.36" cy="11.577" r="10.344"/><path d="M56.566 64.912c-2.893-1.868-5.698-2.791-8.449-2.823a2.64 2.64 0 1 1 .06-5.28c3.798.044 7.56 1.283 11.252 3.666a2.64 2.64 0 1 1-2.863 4.437z" fill="#C6775C" fill-rule="nonzero"/><path d="M60.263 68.466c-1.438-.1-2.554-.442-3.39-.995-.855-.566-1.633-1.467-2.323-2.745a2.75 2.75 0 0 0-4.84 2.612c1.098 2.035 2.47 3.622 4.129 4.72 1.678 1.11 3.705 1.732 6.04 1.895a2.75 2.75 0 0 0 .384-5.487z" fill="#FFF" fill-rule="nonzero"/><path d="M100.965 88.03a1.478 1.478 0 0 1 1.474 1.594l-.69 8.728a.787.787 0 1 1-1.569 0l-.689-8.728a1.478 1.478 0 0 1 1.474-1.595z" fill="#743D00" fill-rule="nonzero" opacity=".807"/><path d="M87.269 96.125l.033-.013c5.704-3.426 13.105-1.58 16.534 4.122l3.62 6c3.43 5.704 1.586 13.109-4.119 16.538l-.005.003-.037.009c-5.704 3.425-13.105 1.58-16.533-4.122l-3.62-6c-3.43-5.705-1.586-13.11 4.119-16.539l.005-.003.003.005z" fill="#FF4B4B" fill-rule="nonzero"/><path d="M114.673 96.125l.003-.005.005.003c5.705 3.43 7.549 10.834 4.12 16.539l-3.621 6c-3.429 5.702-10.83 7.547-16.534 4.122l-.036-.009a36.961 36.961 0 0 1-.005-.003c-5.705-3.43-7.549-10.834-4.12-16.538l3.621-6c3.428-5.702 10.83-7.548 16.533-4.122l.034.013z" fill="#FF4B4B" fill-rule="nonzero"/><ellipse fill="#FF7878" fill-rule="nonzero" cx="92.093" cy="104.6" rx="4.363" ry="4.361"/><path d="M114.79 83.157c.518.554-.301 5.538-2.966 8.017-2.664 2.478-7.839 2.966-8.294 2.478-.455-.488.467-5.625 3.052-8.097 2.585-2.472 7.691-2.953 8.209-2.398z" fill="#5ABB1A" fill-rule="nonzero"/><ellipse fill="#EA2B2B" fill-rule="nonzero" cx="112.018" cy="111.432" rx="2.472" ry="2.471"/><ellipse fill="#EA2B2B" fill-rule="nonzero" cx="108.382" cy="116.229" rx="1.745" ry="1.744"/><path d="M125.253 127.33h-3.327v10.334h3.327v3.566H76.566a8.733 8.733 0 0 1 0-17.466h48.687v3.566z" fill="#A570FF"/><mask fill="#fff"><use xlink:href="#a"/></mask><use fill="#EBEBEB" xlink:href="#a"/></g></svg>